<svg width="236" height="236" viewBox="0 0 236 236" fill="none" xmlns="http://www.w3.org/2000/svg">
<path d="M55.9409 154.875C57.2415 149.999 58.52 138.199 59.408 129.959C61.9172 106.751 63.1331 99.6254 66.346 97.1246C67.3297 96.3611 68.5751 96.0476 69.8205 96.2357C73.3502 96.7705 76.4747 100.85 85.2107 113.346C90.3801 120.734 101.014 135.938 105.059 136.772C105.236 136.499 105.557 135.861 105.851 134.544L106.879 129.889C119.871 70.8591 127.041 50.4619 135.28 49.0566C136.794 48.7948 138.872 49.5988 142.059 52.7156C153.964 64.3527 200.05 96.2062 218.277 101.009L117.738 0.796875L9.26538 109.385C28.6017 130.074 48.8445 150.202 55.9409 154.875Z" fill="black"/>
<path d="M225.755 108.47C225.151 108.636 224.503 108.773 223.744 108.824C207.149 109.901 147.901 71.4824 135.978 56.8945C132.747 62.4346 123.908 86.8042 114.074 131.475L113.042 136.141C112.018 140.755 109.87 143.415 106.657 144.056C99.3026 145.506 91.3772 135.023 79.1778 117.581C76.3075 113.479 72.6562 108.26 70.2207 105.387C68.8832 110.879 67.6231 122.52 66.7352 130.756C64.285 153.418 63.1833 159.887 60.103 162.244C59.5172 162.694 58.8687 163.188 57.7486 163.188C53.5704 163.188 42.7895 156.306 4.03937 114.619L0.336426 118.326L117.736 235.851L235.39 118.071L225.755 108.47Z" fill="black"/>
</svg>
