<svg width="236" height="236" viewBox="0 0 236 236" fill="none" xmlns="http://www.w3.org/2000/svg">
<path d="M179.535 64.8715C175.51 59.2118 171.081 56.5895 165.976 56.8393C141.244 58.0733 104.465 122.529 80.1297 165.177C73.2764 177.191 66.805 188.532 61.3804 197.214C56.4149 205.158 50.8728 209.173 44.8863 209.173C44.4015 209.173 43.913 209.147 43.4245 209.095C27.7567 207.417 14.792 179.273 0.416992 140.555V235.054H235.471V138.675C221.467 123.62 205.116 101.107 186.918 75.3167C184.365 71.6954 181.897 68.1953 179.535 64.8715Z" fill="#00AEEF"/>
<path d="M44.2068 201.79C47.74 202.168 51.398 199.318 55.1478 193.317C60.4953 184.763 66.9299 173.484 73.7465 161.537C101.861 112.264 136.855 50.9406 165.605 49.5046C173.292 49.1079 179.998 52.8577 185.515 60.6145C187.887 63.942 190.359 67.4531 192.922 71.0781C204.749 87.833 220.865 110.663 235.471 127.638V0H0.416992V119.062C0.736519 119.947 1.05604 120.836 1.37924 121.74C12.6031 152.991 29.5674 200.222 44.2068 201.79Z" fill="#00AEEF"/>
</svg>
