<svg width="236" height="236" viewBox="0 0 236 236" fill="none" xmlns="http://www.w3.org/2000/svg">
<path d="M95.9734 138.146C97.4535 135.795 98.5553 131.645 99.5469 127.924C101.416 120.891 103.187 114.247 108.461 112.536C111.524 111.54 114.789 112.51 118.454 115.496C120.434 117.105 122.248 118.772 123.956 120.337C127.853 123.921 131.187 127.021 133.626 126.518C135.907 126.051 140.031 122.371 146.708 107.522C152.397 94.8663 155.251 82.4562 157.546 72.4811C160.422 59.9608 162.163 52.406 167.848 50.5696C172.509 49.0602 176.88 52.9092 178.319 54.1689C197.869 71.3242 209.784 79.6906 217.103 83.4919L172.528 0L117.742 94.2676L62.9557 0L26.8308 67.6698C65.6551 111.471 88.8961 135.163 95.9734 138.146Z" fill="black"/>
<path d="M222.204 93.0592C210.9 90.6646 194.185 77.8689 173.471 59.6889C170.849 57.3898 170.044 57.5514 170.055 57.5661C168.307 58.4328 166.221 67.5045 164.697 74.1264C162.332 84.4136 159.39 97.2167 153.403 110.534C146.576 125.728 141.269 132.445 135.102 133.713C129.061 134.987 124.15 130.488 118.986 125.746C117.381 124.277 115.677 122.705 113.815 121.192C111.865 119.602 110.881 119.481 110.726 119.525C109.254 120.002 107.491 126.632 106.642 129.816C105.188 135.277 103.689 140.922 100.498 144.257C99.5503 145.245 98.2355 145.785 96.7811 145.785C96.7407 145.785 96.6966 145.781 96.6526 145.781C89.0757 145.619 68.7693 126.04 23.1358 74.5928L0.214355 117.527L62.9554 235.054L117.741 142.626L172.527 235.054L235.268 117.527L222.204 93.0592Z" fill="black"/>
</svg>
