<svg width="236" height="236" viewBox="0 0 236 236" fill="none" xmlns="http://www.w3.org/2000/svg">
<path d="M184.297 122.809C162.084 122.809 149.513 117.509 135.777 111.721C125.677 107.464 115.232 103.064 99.5967 100.067C61.1471 92.7072 20.6407 108.97 0 117.557C0.0183636 182.454 52.63 235.054 117.527 235.054C182.435 235.054 235.054 182.435 235.054 117.527C235.054 117.164 235.028 116.808 235.025 116.448C213.466 120.976 197.214 122.809 184.297 122.809Z" fill="#009444"/>
<path d="M100.978 92.8536C117.369 95.9938 128.662 100.754 138.627 104.952C160.218 114.049 177.363 121.244 234.712 109.017C230.349 48.0832 179.57 0 117.527 0C55.3257 0 4.44384 48.3293 0.304688 109.484C22.4181 100.386 62.3075 85.4384 100.978 92.8536Z" fill="#009444"/>
</svg>
