<svg width="408" height="70" viewBox="0 0 408 70" fill="none" xmlns="http://www.w3.org/2000/svg">
<path d="M13.9285 33.9673L17.8617 27.0034H10.4486V29.0776H0V40.9312H10.4486V42.9956H17.8617L13.9285 36.0415C13.5657 35.4005 13.5657 34.6101 13.9285 33.9673Z" fill="#D97D54"/>
<path d="M86.7431 33.9673L69.834 4.04646C69.479 3.41079 68.7726 2.99472 68.0575 3.00005H34.2549C33.5442 3.00005 32.8482 3.41524 32.4967 4.04646L15.5963 33.9673C15.2413 34.5941 15.2413 35.4147 15.5963 36.0415L32.4967 65.9721C32.8534 66.5945 33.5476 67.0016 34.2549 66.9999H68.0575C68.7691 67.0087 69.4738 66.6007 69.834 65.9721L86.744 36.0415C86.9067 35.7401 86.9945 35.3951 86.998 35.0502C87.0006 34.9853 87.0006 34.9204 86.998 34.8555C86.9797 34.5461 86.891 34.2394 86.7431 33.9673ZM63.9885 5.66719C64.7889 5.66719 65.4379 6.33042 65.4379 7.14923C65.4379 7.96805 64.7889 8.63127 63.9885 8.63127C63.1864 8.63127 62.5374 7.96805 62.5374 7.14923C62.5374 6.33042 63.1864 5.66719 63.9885 5.66719ZM51.1658 5.66719C51.9662 5.66719 52.6143 6.33042 52.6143 7.14923C52.6143 7.96805 51.9662 8.63127 51.1658 8.63127C50.3645 8.63127 49.7155 7.96805 49.7155 7.14923C49.7155 6.33042 50.3645 5.66719 51.1658 5.66719ZM38.3334 5.66719C39.1338 5.66719 39.7837 6.33042 39.7837 7.14923C39.7837 7.96805 39.1347 8.63127 38.3334 8.63127C37.5322 8.63127 36.8832 7.96805 36.8832 7.14923C36.8832 6.33042 37.5322 5.66719 38.3334 5.66719ZM38.3334 64.3425C37.5331 64.3425 36.8832 63.6784 36.8832 62.8613C36.8832 62.0425 37.5331 61.3793 38.3334 61.3793C39.1338 61.3793 39.7837 62.0425 39.7837 62.8613C39.7828 63.6784 39.1338 64.3425 38.3334 64.3425ZM51.1658 64.3425C50.3645 64.3425 49.7155 63.6784 49.7155 62.8613C49.7155 62.0425 50.3645 61.3793 51.1658 61.3793C51.9662 61.3793 52.6143 62.0425 52.6143 62.8613C52.6143 63.6784 51.9653 64.3425 51.1658 64.3425ZM63.9885 64.3425C63.1864 64.3425 62.5374 63.6784 62.5374 62.8613C62.5374 62.0425 63.1864 61.3793 63.9885 61.3793C64.7889 61.3793 65.4379 62.0425 65.4379 62.8613C65.4379 63.6784 64.7889 64.3425 63.9885 64.3425ZM78.3877 35.6352L65.4379 58.7122H36.8832L24.0247 36.3109C23.7107 35.7516 23.6724 35.0404 23.9247 34.4501L36.8832 11.2984H65.4379L78.3242 33.6997C78.4939 34.0002 78.5896 34.3443 78.5956 34.6901C78.6009 35.0164 78.5278 35.3418 78.3877 35.6352Z" fill="#D97D54"/>
<path d="M37.9326 19.5992C37.9326 18.8365 38.5412 18.2183 39.292 18.2183H43.8075C44.5583 18.2183 45.1669 18.8365 45.1669 19.5992V25.9041C45.1669 26.6668 44.5583 27.285 43.8075 27.285H39.292C38.5412 27.285 37.9326 26.6668 37.9326 25.9041V19.5992Z" fill="#C1D7E5"/>
<path d="M37.9326 31.8897C37.9326 31.127 38.5412 30.5088 39.292 30.5088H43.8075C44.5583 30.5088 45.1669 31.127 45.1669 31.8897V38.1947C45.1669 38.9573 44.5583 39.5756 43.8075 39.5756H39.292C38.5412 39.5756 37.9326 38.9573 37.9326 38.1947V31.8897Z" fill="#C1D7E5"/>
<path d="M37.9326 44.1802C37.9326 43.4176 38.5412 42.7993 39.292 42.7993H43.8075C44.5583 42.7993 45.1669 43.4176 45.1669 44.1802V50.4852C45.1669 51.2478 44.5583 51.8661 43.8075 51.8661H39.292C38.5412 51.8661 37.9326 51.2478 37.9326 50.4852V44.1802Z" fill="#C1D7E5"/>
<path d="M47.5791 19.5992C47.5791 18.8365 48.1877 18.2183 48.9385 18.2183H53.454C54.2048 18.2183 54.8134 18.8365 54.8134 19.5992V25.9041C54.8134 26.6668 54.2048 27.285 53.454 27.285H48.9385C48.1877 27.285 47.5791 26.6668 47.5791 25.9041V19.5992Z" fill="#C1D7E5"/>
<path d="M47.5791 31.8897C47.5791 31.127 48.1877 30.5088 48.9385 30.5088H53.454C54.2048 30.5088 54.8134 31.127 54.8134 31.8897V38.1947C54.8134 38.9573 54.2048 39.5756 53.454 39.5756H48.9385C48.1877 39.5756 47.5791 38.9573 47.5791 38.1947V31.8897Z" fill="#C1D7E5"/>
<path d="M47.5791 44.1802C47.5791 43.4176 48.1877 42.7993 48.9385 42.7993H53.454C54.2048 42.7993 54.8134 43.4176 54.8134 44.1802V50.4852C54.8134 51.2478 54.2048 51.8661 53.454 51.8661H48.9385C48.1877 51.8661 47.5791 51.2478 47.5791 50.4852V44.1802Z" fill="#C1D7E5"/>
<path fill-rule="evenodd" clip-rule="evenodd" d="M63.0995 19.5992L58.584 19.5992V25.9041L63.0995 25.9041V19.5992ZM58.584 18.2183C57.8332 18.2183 57.2246 18.8365 57.2246 19.5992V25.9041C57.2246 26.6668 57.8332 27.285 58.584 27.285H63.0995C63.8503 27.285 64.4589 26.6668 64.4589 25.9041V19.5992C64.4589 18.8365 63.8503 18.2183 63.0995 18.2183H58.584Z" fill="#C1D7E5"/>
<path d="M57.2246 31.8897C57.2246 31.127 57.8332 30.5088 58.584 30.5088H63.0995C63.8503 30.5088 64.4589 31.127 64.4589 31.8897V38.1947C64.4589 38.9573 63.8503 39.5756 63.0995 39.5756H58.584C57.8332 39.5756 57.2246 38.9573 57.2246 38.1947V31.8897Z" fill="#C1D7E5"/>
<path d="M57.2246 44.1802C57.2246 43.4176 57.8332 42.7993 58.584 42.7993H63.0995C63.8503 42.7993 64.4589 43.4176 64.4589 44.1802V50.4852C64.4589 51.2478 63.8503 51.8661 63.0995 51.8661H58.584C57.8332 51.8661 57.2246 51.2478 57.2246 50.4852V44.1802Z" fill="#C1D7E5"/>
<path d="M120.823 19.7969C124.567 19.7969 127.517 20.7627 129.673 22.6943C131.844 24.611 132.93 27.1266 132.93 30.2412C132.93 33.3708 131.844 35.8864 129.673 37.7881C127.517 39.6898 124.567 40.6406 120.823 40.6406H115.298V47.8955L118.802 48.5693V52.5H105.258V48.5693L108.739 47.8955V24.4238L105.258 23.75V19.7969H108.739H120.823ZM115.298 35.5869H120.823C122.65 35.5869 124.028 35.0928 124.956 34.1045C125.899 33.1012 126.371 31.8285 126.371 30.2861C126.371 28.7139 125.899 27.4186 124.956 26.4004C124.028 25.3672 122.65 24.8506 120.823 24.8506H115.298V35.5869ZM146.519 52.9717C143.015 52.9717 140.215 51.8486 138.118 49.6025C136.022 47.3564 134.974 44.5039 134.974 41.0449V40.1465C134.974 36.5378 135.962 33.5654 137.938 31.2295C139.93 28.8936 142.595 27.7331 145.935 27.748C149.214 27.748 151.759 28.7363 153.571 30.7129C155.383 32.6895 156.289 35.3623 156.289 38.7314V42.3027H141.779L141.734 42.4375C141.854 44.0397 142.386 45.3574 143.329 46.3906C144.287 47.4238 145.583 47.9404 147.215 47.9404C148.667 47.9404 149.873 47.7982 150.831 47.5137C151.789 47.2142 152.838 46.75 153.976 46.1211L155.75 50.1641C154.747 50.9577 153.444 51.624 151.842 52.1631C150.255 52.7021 148.48 52.9717 146.519 52.9717ZM145.935 32.8018C144.722 32.8018 143.763 33.266 143.06 34.1943C142.356 35.1227 141.922 36.3431 141.757 37.8555L141.824 37.9678H149.865V37.3838C149.865 35.9912 149.536 34.8831 148.877 34.0596C148.233 33.221 147.252 32.8018 145.935 32.8018ZM175.224 49.5352C174.46 50.6582 173.554 51.5117 172.506 52.0957C171.473 52.6797 170.29 52.9717 168.957 52.9717C165.962 52.9717 163.634 51.8786 161.972 49.6924C160.325 47.5062 159.501 44.6162 159.501 41.0225V40.5508C159.501 36.7174 160.332 33.6253 161.994 31.2744C163.656 28.9235 165.992 27.748 169.002 27.748C170.215 27.748 171.308 28.0176 172.281 28.5566C173.255 29.0807 174.108 29.8294 174.842 30.8027V22.0879L171.338 21.4141V17.4609H174.842H181.4V47.8955L184.545 48.5693V52.5H175.718L175.224 49.5352ZM166.06 41.0225C166.06 43.1488 166.411 44.8258 167.115 46.0537C167.834 47.2666 169.002 47.873 170.619 47.873C171.577 47.873 172.409 47.6784 173.112 47.2891C173.816 46.8997 174.393 46.3382 174.842 45.6045V35.2949C174.393 34.5163 173.816 33.9173 173.112 33.498C172.424 33.0638 171.607 32.8467 170.664 32.8467C169.062 32.8467 167.894 33.5579 167.16 34.9805C166.426 36.403 166.06 38.2598 166.06 40.5508V41.0225ZM202.109 52.5C201.93 52.0957 201.772 51.6839 201.638 51.2646C201.503 50.8304 201.398 50.3962 201.323 49.9619C200.545 50.8604 199.594 51.5866 198.471 52.1406C197.363 52.6947 196.09 52.9717 194.652 52.9717C192.271 52.9717 190.377 52.3278 188.97 51.04C187.577 49.7373 186.881 47.9704 186.881 45.7393C186.881 43.4632 187.794 41.7038 189.621 40.4609C191.448 39.2181 194.128 38.5967 197.662 38.5967H201.009V36.2158C201.009 35.0479 200.672 34.1419 199.998 33.498C199.324 32.8542 198.328 32.5322 197.011 32.5322C196.262 32.5322 195.596 32.6221 195.012 32.8018C194.428 32.9665 193.956 33.1686 193.597 33.4082L193.17 36.0137H188.229L188.251 30.623C189.449 29.8145 190.819 29.1331 192.361 28.5791C193.919 28.0251 195.611 27.748 197.438 27.748C200.447 27.748 202.888 28.4893 204.76 29.9717C206.646 31.4391 207.59 33.5355 207.59 36.2607V46.3008C207.59 46.6751 207.59 47.027 207.59 47.3564C207.605 47.6859 207.635 48.0003 207.68 48.2998L209.679 48.5693V52.5H202.109ZM196.427 48.1201C197.415 48.1201 198.313 47.9105 199.122 47.4912C199.931 47.057 200.56 46.5179 201.009 45.874V42.168H197.662C196.27 42.168 195.214 42.4974 194.495 43.1562C193.776 43.8001 193.417 44.5788 193.417 45.4922C193.417 46.3158 193.679 46.9596 194.203 47.4238C194.742 47.888 195.483 48.1201 196.427 48.1201ZM211.229 21.4141V17.4609H221.291V47.8955L224.458 48.5693V52.5H211.565V48.5693L214.732 47.8955V22.0879L211.229 21.4141Z" fill="#D97D54"/>
<path d="M242.022 19.7969C245.766 19.7969 248.716 20.7627 250.872 22.6943C253.043 24.611 254.129 27.1266 254.129 30.2412C254.129 33.3708 253.043 35.8864 250.872 37.7881C248.716 39.6898 245.766 40.6406 242.022 40.6406H236.497V47.8955L240.001 48.5693V52.5H226.457V48.5693L229.938 47.8955V24.4238L226.457 23.75V19.7969H229.938H242.022ZM236.497 35.5869H242.022C243.849 35.5869 245.227 35.0928 246.155 34.1045C247.099 33.1012 247.57 31.8285 247.57 30.2861C247.57 28.7139 247.099 27.4186 246.155 26.4004C245.227 25.3672 243.849 24.8506 242.022 24.8506H236.497V35.5869ZM255.701 21.4141V17.4609H265.764V47.8955L268.931 48.5693V52.5H256.038V48.5693L259.205 47.8955V22.0879L255.701 21.4141ZM286.562 52.5C286.383 52.0957 286.226 51.6839 286.091 51.2646C285.956 50.8304 285.851 50.3962 285.776 49.9619C284.998 50.8604 284.047 51.5866 282.924 52.1406C281.816 52.6947 280.543 52.9717 279.105 52.9717C276.725 52.9717 274.83 52.3278 273.423 51.04C272.03 49.7373 271.334 47.9704 271.334 45.7393C271.334 43.4632 272.247 41.7038 274.074 40.4609C275.901 39.2181 278.581 38.5967 282.115 38.5967H285.462V36.2158C285.462 35.0479 285.125 34.1419 284.451 33.498C283.777 32.8542 282.782 32.5322 281.464 32.5322C280.715 32.5322 280.049 32.6221 279.465 32.8018C278.881 32.9665 278.409 33.1686 278.05 33.4082L277.623 36.0137H272.682L272.704 30.623C273.902 29.8145 275.272 29.1331 276.814 28.5791C278.372 28.0251 280.064 27.748 281.891 27.748C284.9 27.748 287.341 28.4893 289.213 29.9717C291.1 31.4391 292.043 33.5355 292.043 36.2607V46.3008C292.043 46.6751 292.043 47.027 292.043 47.3564C292.058 47.6859 292.088 48.0003 292.133 48.2998L294.132 48.5693V52.5H286.562ZM280.88 48.1201C281.868 48.1201 282.767 47.9105 283.575 47.4912C284.384 47.057 285.013 46.5179 285.462 45.874V42.168H282.115C280.723 42.168 279.667 42.4974 278.948 43.1562C278.229 43.8001 277.87 44.5788 277.87 45.4922C277.87 46.3158 278.132 46.9596 278.656 47.4238C279.195 47.888 279.937 48.1201 280.88 48.1201ZM296.019 48.5693L299.163 47.8955V32.8242L295.682 32.1504V28.1973H305.272L305.564 31.6787C306.373 30.4359 307.369 29.4701 308.552 28.7812C309.735 28.0924 311.06 27.748 312.527 27.748C314.983 27.748 316.9 28.5192 318.277 30.0615C319.655 31.6038 320.344 34.0221 320.344 37.3164V47.8955L323.488 48.5693V52.5H310.955V48.5693L313.763 47.8955V37.3389C313.763 35.7067 313.433 34.5537 312.774 33.8799C312.116 33.1911 311.12 32.8467 309.787 32.8467C308.919 32.8467 308.14 33.0264 307.451 33.3857C306.762 33.7301 306.186 34.2243 305.722 34.8682V47.8955L308.372 48.5693V52.5H296.019V48.5693ZM325.218 48.5693L328.362 47.8955V32.8242L324.881 32.1504V28.1973H334.472L334.764 31.6787C335.572 30.4359 336.568 29.4701 337.751 28.7812C338.934 28.0924 340.259 27.748 341.727 27.748C344.182 27.748 346.099 28.5192 347.477 30.0615C348.854 31.6038 349.543 34.0221 349.543 37.3164V47.8955L352.688 48.5693V52.5H340.154V48.5693L342.962 47.8955V37.3389C342.962 35.7067 342.632 34.5537 341.974 33.8799C341.315 33.1911 340.319 32.8467 338.986 32.8467C338.118 32.8467 337.339 33.0264 336.65 33.3857C335.962 33.7301 335.385 34.2243 334.921 34.8682V47.8955L337.571 48.5693V52.5H325.218V48.5693ZM366.187 52.9717C362.683 52.9717 359.882 51.8486 357.786 49.6025C355.69 47.3564 354.642 44.5039 354.642 41.0449V40.1465C354.642 36.5378 355.63 33.5654 357.606 31.2295C359.598 28.8936 362.263 27.7331 365.603 27.748C368.882 27.748 371.427 28.7363 373.239 30.7129C375.051 32.6895 375.957 35.3623 375.957 38.7314V42.3027H361.447L361.402 42.4375C361.522 44.0397 362.054 45.3574 362.997 46.3906C363.955 47.4238 365.251 47.9404 366.883 47.9404C368.335 47.9404 369.541 47.7982 370.499 47.5137C371.457 47.2142 372.506 46.75 373.644 46.1211L375.418 50.1641C374.415 50.9577 373.112 51.624 371.51 52.1631C369.923 52.7021 368.148 52.9717 366.187 52.9717ZM365.603 32.8018C364.39 32.8018 363.431 33.266 362.728 34.1943C362.024 35.1227 361.59 36.3431 361.425 37.8555L361.492 37.9678H369.533V37.3838C369.533 35.9912 369.204 34.8831 368.545 34.0596C367.901 33.221 366.92 32.8018 365.603 32.8018ZM379.573 48.5693L382.718 47.8955V32.8242L379.236 32.1504V28.1973H388.827L389.119 31.7461C389.688 30.4883 390.422 29.5075 391.32 28.8037C392.219 28.0999 393.259 27.748 394.442 27.748C394.787 27.748 395.146 27.778 395.521 27.8379C395.91 27.8828 396.232 27.9427 396.486 28.0176L395.79 33.9922L393.095 33.9248C392.136 33.9248 391.343 34.112 390.714 34.4863C390.085 34.8607 389.606 35.3923 389.276 36.0811V47.8955L392.421 48.5693V52.5H379.573V48.5693Z" fill="#C1D7E5"/>
</svg>
