<svg width="128" height="93" viewBox="0 0 128 93" fill="none" xmlns="http://www.w3.org/2000/svg">
<path d="M20.4925 44.8503L26.2794 34.7644H15.3726V37.7684H0V54.9362H15.3726V57.926H26.2794L20.4925 47.8543C19.9588 46.9259 19.9588 45.7812 20.4925 44.8503Z" fill="#D97D54"/>
<path d="M127.622 44.8502L102.744 1.51559C102.222 0.594951 101.183 -0.00765226 100.131 7.34193e-05H50.3982C49.3524 7.34193e-05 48.3285 0.601389 47.8113 1.51559L22.9464 44.8502C22.4241 45.758 22.4241 46.9465 22.9464 47.8542L47.8113 91.203C48.3361 92.1043 49.3576 92.6941 50.3982 92.6915H100.131C101.178 92.7044 102.215 92.1134 102.744 91.203L127.623 47.8542C127.863 47.4177 127.992 46.9181 127.997 46.4185C128.001 46.3245 128.001 46.2305 127.997 46.1366C127.97 45.6885 127.84 45.2442 127.622 44.8502ZM94.1442 3.86291C95.3218 3.86291 96.2767 4.82347 96.2767 6.00937C96.2767 7.19526 95.3218 8.15582 94.1442 8.15582C92.9641 8.15582 92.0092 7.19526 92.0092 6.00937C92.0092 4.82347 92.9641 3.86291 94.1442 3.86291ZM75.2785 3.86291C76.4561 3.86291 77.4097 4.82347 77.4097 6.00937C77.4097 7.19526 76.4561 8.15582 75.2785 8.15582C74.0997 8.15582 73.1448 7.19526 73.1448 6.00937C73.1448 4.82347 74.0997 3.86291 75.2785 3.86291ZM56.3988 3.86291C57.5763 3.86291 58.5325 4.82347 58.5325 6.00937C58.5325 7.19526 57.5776 8.15582 56.3988 8.15582C55.2199 8.15582 54.265 7.19526 54.265 6.00937C54.265 4.82347 55.2199 3.86291 56.3988 3.86291ZM56.3988 88.8428C55.2212 88.8428 54.265 87.881 54.265 86.6977C54.265 85.5118 55.2212 84.5512 56.3988 84.5512C57.5763 84.5512 58.5325 85.5118 58.5325 86.6977C58.5312 87.881 57.5763 88.8428 56.3988 88.8428ZM75.2785 88.8428C74.0997 88.8428 73.1448 87.881 73.1448 86.6977C73.1448 85.5118 74.0997 84.5512 75.2785 84.5512C76.4561 84.5512 77.4097 85.5118 77.4097 86.6977C77.4097 87.881 76.4548 88.8428 75.2785 88.8428ZM94.1442 88.8428C92.9641 88.8428 92.0092 87.881 92.0092 86.6977C92.0092 85.5118 92.9641 84.5512 94.1442 84.5512C95.3218 84.5512 96.2767 85.5118 96.2767 86.6977C96.2767 87.881 95.3218 88.8428 94.1442 88.8428ZM115.329 47.2658L96.2767 80.6884H54.265L35.3468 48.2444C34.8848 47.4345 34.8285 46.4044 35.1997 45.5494L54.265 12.0187H96.2767L115.236 44.4627C115.485 44.8979 115.626 45.3962 115.635 45.8971C115.643 46.3696 115.535 46.8409 115.329 47.2658Z" fill="#D97D54"/>
<path d="M55.8096 24.0408C55.8096 22.9362 56.705 22.0408 57.8096 22.0408H64.4531C65.5577 22.0408 66.4531 22.9362 66.4531 24.0408V33.1723C66.4531 34.2768 65.5577 35.1723 64.4531 35.1723H57.8096C56.705 35.1723 55.8096 34.2768 55.8096 33.1723V24.0408Z" fill="#C1D7E5"/>
<path d="M55.8096 41.8413C55.8096 40.7367 56.705 39.8413 57.8096 39.8413H64.4531C65.5577 39.8413 66.4531 40.7367 66.4531 41.8413V50.9728C66.4531 52.0774 65.5577 52.9728 64.4531 52.9728H57.8096C56.705 52.9728 55.8096 52.0774 55.8096 50.9728V41.8413Z" fill="#C1D7E5"/>
<path d="M55.8096 59.6416C55.8096 58.537 56.705 57.6416 57.8096 57.6416H64.4531C65.5577 57.6416 66.4531 58.537 66.4531 59.6416V68.7731C66.4531 69.8777 65.5577 70.7731 64.4531 70.7731H57.8096C56.705 70.7731 55.8096 69.8777 55.8096 68.7731V59.6416Z" fill="#C1D7E5"/>
<path d="M70.001 24.0408C70.001 22.9362 70.8964 22.0408 72.001 22.0408H78.6445C79.7491 22.0408 80.6445 22.9362 80.6445 24.0408V33.1723C80.6445 34.2768 79.7491 35.1723 78.6445 35.1723H72.001C70.8964 35.1723 70.001 34.2768 70.001 33.1723V24.0408Z" fill="#C1D7E5"/>
<path d="M70.001 41.8413C70.001 40.7367 70.8964 39.8413 72.001 39.8413H78.6446C79.7491 39.8413 80.6446 40.7367 80.6446 41.8413V50.9728C80.6446 52.0774 79.7491 52.9728 78.6446 52.9728H72.001C70.8964 52.9728 70.001 52.0774 70.001 50.9728V41.8413Z" fill="#C1D7E5"/>
<path d="M70.001 59.6416C70.001 58.537 70.8964 57.6416 72.001 57.6416H78.6446C79.7491 57.6416 80.6446 58.537 80.6446 59.6416V68.7731C80.6446 69.8777 79.7491 70.7731 78.6446 70.7731H72.001C70.8964 70.7731 70.001 69.8777 70.001 68.7731V59.6416Z" fill="#C1D7E5"/>
<path fill-rule="evenodd" clip-rule="evenodd" d="M92.836 24.0408L86.1924 24.0408V33.1723L92.836 33.1723V24.0408ZM86.1924 22.0408C85.0878 22.0408 84.1924 22.9362 84.1924 24.0408V33.1723C84.1924 34.2768 85.0878 35.1723 86.1924 35.1723H92.836C93.9405 35.1723 94.836 34.2768 94.836 33.1723V24.0408C94.836 22.9362 93.9405 22.0408 92.8359 22.0408H86.1924Z" fill="#C1D7E5"/>
<path d="M84.1924 41.8413C84.1924 40.7367 85.0878 39.8413 86.1924 39.8413H92.8359C93.9405 39.8413 94.8359 40.7367 94.8359 41.8413V50.9728C94.8359 52.0774 93.9405 52.9728 92.8359 52.9728H86.1924C85.0878 52.9728 84.1924 52.0774 84.1924 50.9728V41.8413Z" fill="#C1D7E5"/>
<path d="M84.1924 59.6416C84.1924 58.537 85.0878 57.6416 86.1924 57.6416H92.8359C93.9405 57.6416 94.8359 58.537 94.8359 59.6416V68.7731C94.8359 69.8777 93.9405 70.7731 92.8359 70.7731H86.1924C85.0878 70.7731 84.1924 69.8777 84.1924 68.7731V59.6416Z" fill="#C1D7E5"/>
</svg>
